<?xml version="1.0" encoding="UTF-8"?>
<svg height="128px" viewBox="0 0 128 128" width="128px" xmlns="http://www.w3.org/2000/svg" xmlns:xlink="http://www.w3.org/1999/xlink">
    <clipPath id="a">
        <rect height="128" width="128"/>
    </clipPath>
    <clipPath id="b">
        <rect height="128" width="128"/>
    </clipPath>
    <filter id="c" height="100%" width="100%" x="0%" y="0%">
        <feColorMatrix in="SourceGraphic" type="matrix" values="0 0 0 0 1 0 0 0 0 1 0 0 0 0 1 0 0 0 1 0"/>
    </filter>
    <mask id="d">
        <g clip-path="url(#b)" filter="url(#c)">
            <g clip-path="url(#a)">
                <path d="m 31.65625 84.566406 h 60.542969 v 31.433594 l -62.601563 -0.003906 z m 49.445312 -16.554687 c 0 14.390625 -11.667968 26.054687 -26.058593 26.054687 c -14.386719 0 -26.054688 -11.664062 -26.054688 -26.054687 s 11.667969 -26.054688 26.054688 -26.054688 c 14.390625 0 26.058593 11.664063 26.058593 26.054688 z m 41.296876 17.789062 c 0 16.679688 -13.519532 30.199219 -30.199219 30.199219 c -16.675781 0 -30.199219 -13.519531 -30.199219 -30.199219 c 0 -16.679687 13.523438 -30.199219 30.199219 -30.199219 c 16.679687 0 30.199219 13.519532 30.199219 30.199219 z m -68.8125 6.207031 c 0 13.25 -10.742188 23.992188 -23.992188 23.992188 s -23.992188 -10.742188 -23.992188 -23.992188 c 0 -13.253906 10.742188 -23.996093 23.992188 -23.996093 s 23.992188 10.742187 23.992188 23.996093 z m 0 0" fill="#c0bfbc"/>
                <path d="m 31.65625 82.816406 h 60.542969 v 31.4375 l -62.601563 -0.007812 z m 49.445312 -16.550781 c 0 14.390625 -11.667968 26.054687 -26.058593 26.054687 c -14.386719 0 -26.054688 -11.664062 -26.054688 -26.054687 s 11.667969 -26.054687 26.054688 -26.054687 c 14.390625 0 26.058593 11.664062 26.058593 26.054687 z m 41.296876 17.789063 c 0 16.675781 -13.519532 30.199218 -30.199219 30.199218 c -16.675781 0 -30.199219 -13.523437 -30.199219 -30.199218 c 0 -16.679688 13.523438 -30.199219 30.199219 -30.199219 c 16.679687 0 30.199219 13.519531 30.199219 30.199219 z m -68.8125 6.203124 c 0 13.253907 -10.742188 23.996094 -23.992188 23.996094 s -23.992188 -10.742187 -23.992188 -23.996094 c 0 -13.25 10.742188 -23.992187 23.992188 -23.992187 s 23.992188 10.742187 23.992188 23.992187 z m 0 0" fill="#deddda"/>
                <path d="m 7.683594 83.097656 l -0.054688 5.238282 l 9.375 -1.25 z m 22.535156 -17.898437 c -12.78125 0 -22.589844 10.355469 -22.589844 23.136719 s 10.363282 23.140624 23.144532 23.140624 c 0.664062 -0.003906 1.324218 -0.035156 1.984374 -0.09375 z m 0 0 l 2.542969 46.277343 h 58.398437 z m 0 0" fill="#1c71d8"/>
                <path d="m 91.1875 53.226562 c -4.300781 0.003907 -8.550781 0.957032 -12.441406 2.800782 l 12.441406 55.457031 c 16.085938 0 29.128906 -13.042969 29.128906 -29.128906 l 0.023438 -5.242188 l -0.464844 0.183594 c -2.457031 -13.921875 -14.550781 -24.070313 -28.6875 -24.070313 z m 0 58.257813 l -12.445312 -55.464844 l -47.96875 55.457031 z m 0 0" fill="#1a5fb4"/>
                <path d="m 30.828125 106.242188 l -0.003906 5.203124 h 60.363281 v -5.203124 z" fill="#3584e4"/>
                <path d="m 32.816406 75.921875 h 58.394532 v 30.320313 h -58.394532 z m 47.6875 -15.964844 c 0 13.878907 -11.25 25.128907 -25.128906 25.128907 s -25.132812 -11.25 -25.132812 -25.128907 c 0 -13.882812 11.253906 -25.132812 25.132812 -25.132812 s 25.128906 11.25 25.128906 25.132812 z m 39.835938 17.15625 c 0 16.085938 -13.039063 29.128907 -29.128906 29.128907 c -16.085938 0 -29.125 -13.042969 -29.125 -29.128907 c 0 -16.085937 13.039062 -29.128906 29.125 -29.128906 c 16.089843 0 29.128906 13.042969 29.128906 29.128906 z m -66.371094 5.984375 c 0 12.78125 -10.363281 23.144532 -23.144531 23.144532 s -23.140625 -10.363282 -23.140625 -23.144532 s 10.359375 -23.140625 23.140625 -23.140625 s 23.144531 10.359375 23.144531 23.140625 z m 0 0" fill="#1a5fb4"/>
                <path d="m 30.273438 59.960938 c -12.78125 0 -22.589844 10.355468 -22.589844 23.136718 s 10.363281 23.144532 23.144531 23.144532 c 0.660156 -0.003907 1.324219 -0.035157 1.980469 -0.09375 z m 0 0 l 2.542968 46.28125 h 58.394532 z m 0 0" fill="#3584e4"/>
                <path d="m 91.242188 47.992188 c -4.304688 0 -8.554688 0.957031 -12.441407 2.796874 l 12.441407 55.457032 c 16.085937 0 29.128906 -13.039063 29.128906 -29.128906 c 0 -16.085938 -13.042969 -29.125 -29.128906 -29.125 z m -60.414063 58.25 l 47.96875 -55.460938 l 12.445313 55.464844 z m 0 0" fill="#1c71d8"/>
                <path d="m 54.765625 78.5625 l -23.9375 27.679688 h 60.382813 z m 0 0" fill="#62a0ea"/>
            </g>
        </g>
    </mask>
    <mask id="e">
        <g filter="url(#c)">
            <rect fill-opacity="0.8" height="128" width="128"/>
        </g>
    </mask>
    <linearGradient id="f" gradientTransform="matrix(0 0.37 -0.98462 0 295.38501 -30.360001)" gradientUnits="userSpaceOnUse" x1="300" x2="428" y1="235" y2="235">
        <stop offset="0" stop-color="#f9f06b"/>
        <stop offset="1" stop-color="#f5c211"/>
    </linearGradient>
    <clipPath id="g">
        <rect height="128" width="128"/>
    </clipPath>
    <clipPath id="h">
        <rect height="128" width="128"/>
    </clipPath>
    <path d="m 31.65625 84.566406 h 60.542969 v 31.433594 l -62.601563 -0.003906 z m 49.445312 -16.554687 c 0 14.390625 -11.667968 26.054687 -26.058593 26.054687 c -14.386719 0 -26.054688 -11.664062 -26.054688 -26.054687 s 11.667969 -26.054688 26.054688 -26.054688 c 14.390625 0 26.058593 11.664063 26.058593 26.054688 z m 41.296876 17.789062 c 0 16.679688 -13.519532 30.199219 -30.199219 30.199219 c -16.675781 0 -30.199219 -13.519531 -30.199219 -30.199219 c 0 -16.679687 13.523438 -30.199219 30.199219 -30.199219 c 16.679687 0 30.199219 13.519532 30.199219 30.199219 z m -68.8125 6.207031 c 0 13.25 -10.742188 23.992188 -23.992188 23.992188 s -23.992188 -10.742188 -23.992188 -23.992188 c 0 -13.253906 10.742188 -23.996093 23.992188 -23.996093 s 23.992188 10.742187 23.992188 23.996093 z m 0 0" fill="#c0bfbc"/>
    <path d="m 31.65625 82.816406 h 60.542969 v 31.4375 l -62.601563 -0.007812 z m 49.445312 -16.550781 c 0 14.390625 -11.667968 26.054687 -26.058593 26.054687 c -14.386719 0 -26.054688 -11.664062 -26.054688 -26.054687 s 11.667969 -26.054687 26.054688 -26.054687 c 14.390625 0 26.058593 11.664062 26.058593 26.054687 z m 41.296876 17.789063 c 0 16.675781 -13.519532 30.199218 -30.199219 30.199218 c -16.675781 0 -30.199219 -13.523437 -30.199219 -30.199218 c 0 -16.679688 13.523438 -30.199219 30.199219 -30.199219 c 16.679687 0 30.199219 13.519531 30.199219 30.199219 z m -68.8125 6.203124 c 0 13.253907 -10.742188 23.996094 -23.992188 23.996094 s -23.992188 -10.742187 -23.992188 -23.996094 c 0 -13.25 10.742188 -23.992187 23.992188 -23.992187 s 23.992188 10.742187 23.992188 23.992187 z m 0 0" fill="#deddda"/>
    <path d="m 7.683594 83.097656 l -0.054688 5.238282 l 9.375 -1.25 z m 22.535156 -17.898437 c -12.78125 0 -22.589844 10.355469 -22.589844 23.136719 s 10.363282 23.140624 23.144532 23.140624 c 0.664062 -0.003906 1.324218 -0.035156 1.984374 -0.09375 z m 0 0 l 2.542969 46.277343 h 58.398437 z m 0 0" fill="#1c71d8"/>
    <path d="m 91.1875 53.226562 c -4.300781 0.003907 -8.550781 0.957032 -12.441406 2.800782 l 12.441406 55.457031 c 16.085938 0 29.128906 -13.042969 29.128906 -29.128906 l 0.023438 -5.242188 l -0.464844 0.183594 c -2.457031 -13.921875 -14.550781 -24.070313 -28.6875 -24.070313 z m 0 58.257813 l -12.445312 -55.464844 l -47.96875 55.457031 z m 0 0" fill="#1a5fb4"/>
    <path d="m 30.828125 106.242188 l -0.003906 5.203124 h 60.363281 v -5.203124 z" fill="#3584e4"/>
    <path d="m 32.816406 75.921875 h 58.394532 v 30.320313 h -58.394532 z m 47.6875 -15.964844 c 0 13.878907 -11.25 25.128907 -25.128906 25.128907 s -25.132812 -11.25 -25.132812 -25.128907 c 0 -13.882812 11.253906 -25.132812 25.132812 -25.132812 s 25.128906 11.25 25.128906 25.132812 z m 39.835938 17.15625 c 0 16.085938 -13.039063 29.128907 -29.128906 29.128907 c -16.085938 0 -29.125 -13.042969 -29.125 -29.128907 c 0 -16.085937 13.039062 -29.128906 29.125 -29.128906 c 16.089843 0 29.128906 13.042969 29.128906 29.128906 z m -66.371094 5.984375 c 0 12.78125 -10.363281 23.144532 -23.144531 23.144532 s -23.140625 -10.363282 -23.140625 -23.144532 s 10.359375 -23.140625 23.140625 -23.140625 s 23.144531 10.359375 23.144531 23.140625 z m 0 0" fill="#1a5fb4"/>
    <path d="m 30.273438 59.960938 c -12.78125 0 -22.589844 10.355468 -22.589844 23.136718 s 10.363281 23.144532 23.144531 23.144532 c 0.660156 -0.003907 1.324219 -0.035157 1.980469 -0.09375 z m 0 0 l 2.542968 46.28125 h 58.394532 z m 0 0" fill="#3584e4"/>
    <path d="m 91.242188 47.992188 c -4.304688 0 -8.554688 0.957031 -12.441407 2.796874 l 12.441407 55.457032 c 16.085937 0 29.128906 -13.039063 29.128906 -29.128906 c 0 -16.085938 -13.042969 -29.125 -29.128906 -29.125 z m -60.414063 58.25 l 47.96875 -55.460938 l 12.445313 55.464844 z m 0 0" fill="#1c71d8"/>
    <path d="m 54.765625 78.5625 l -23.9375 27.679688 h 60.382813 z m 0 0" fill="#62a0ea"/>
    <g clip-path="url(#h)" mask="url(#d)">
        <g clip-path="url(#g)" mask="url(#e)">
            <path d="m 128 80.640625 v 47.359375 h -128 v -47.359375 z m 0 0" fill="url(#f)"/>
            <path d="m 13.308594 80.640625 l 47.355468 47.359375 h 21.214844 l -47.359375 -47.359375 z m 42.421875 0 l 47.363281 47.359375 h 21.214844 l -47.363282 -47.359375 z m 42.429687 0 l 29.839844 29.839844 v -21.210938 l -8.628906 -8.628906 z m -98.160156 7.90625 v 21.214844 l 18.238281 18.238281 h 21.214844 z m 0 0"/>
        </g>
    </g>
</svg>
