<?xml version="1.0" encoding="UTF-8"?>
<svg height="16px" viewBox="0 0 16 16" width="16px" xmlns="http://www.w3.org/2000/svg">
    <path d="m 3.570312 8.765625 h 8.292969 v 4.304687 h -8.292969 z m 6.773438 -2.269531 c 0 1.972656 -1.597656 3.570312 -3.570312 3.570312 c -1.972657 0 -3.570313 -1.597656 -3.570313 -3.570312 c 0 -1.96875 1.597656 -3.566406 3.570313 -3.566406 c 1.972656 0 3.570312 1.597656 3.570312 3.566406 z m 5.65625 2.4375 c 0 2.285156 -1.851562 4.136718 -4.136719 4.136718 c -2.285156 0 -4.136719 -1.851562 -4.136719 -4.136718 s 1.851563 -4.136719 4.136719 -4.136719 c 2.285157 0 4.136719 1.851563 4.136719 4.136719 z m -9.425781 0.851562 c 0 1.816406 -1.472657 3.285156 -3.289063 3.285156 c -1.8125 0 -3.285156 -1.46875 -3.285156 -3.285156 s 1.472656 -3.289062 3.285156 -3.289062 c 1.816406 0 3.289063 1.472656 3.289063 3.289062 z m 0 0"/>
</svg>
