<?xml version="1.0" encoding="UTF-8" standalone="no"?>
<svg
   height="128px"
   viewBox="0 0 128 128"
   width="128px"
   version="1.1"
   id="svg69"
   sodipodi:docname="app.drey.Synchrony.Devel.svg"
   inkscape:version="1.2.1 (9c6d41e410, 2022-07-14)"
   xmlns:inkscape="http://www.inkscape.org/namespaces/inkscape"
   xmlns:sodipodi="http://sodipodi.sourceforge.net/DTD/sodipodi-0.dtd"
   xmlns:xlink="http://www.w3.org/1999/xlink"
   xmlns="http://www.w3.org/2000/svg"
   xmlns:svg="http://www.w3.org/2000/svg">
  <defs
     id="defs73">
    <clipPath
       clipPathUnits="userSpaceOnUse"
       id="clipPath1381">
      <path
         id="path1383"
         style="fill:#26a269;stroke-width:2.13938;stroke-linecap:round;stroke-linejoin:round"
         d="M 0,92.847656 H 128 V 128 H 0 Z" />
    </clipPath>
  </defs>
  <sodipodi:namedview
     id="namedview71"
     pagecolor="#ffffff"
     bordercolor="#000000"
     borderopacity="0.25"
     inkscape:showpageshadow="2"
     inkscape:pageopacity="0.0"
     inkscape:pagecheckerboard="0"
     inkscape:deskcolor="#d1d1d1"
     showgrid="false"
     inkscape:zoom="2.3610277"
     inkscape:cx="91.273812"
     inkscape:cy="144.85217"
     inkscape:window-width="1366"
     inkscape:window-height="699"
     inkscape:window-x="0"
     inkscape:window-y="0"
     inkscape:window-maximized="1"
     inkscape:current-layer="svg69" />
  <linearGradient
     id="a"
     gradientUnits="userSpaceOnUse">
    <stop
       offset="0"
       stop-color="#62a0ea"
       id="stop2" />
    <stop
       offset="1"
       stop-color="#1c71d8"
       id="stop4" />
  </linearGradient>
  <radialGradient
     id="b"
     cx="323.377228"
     cy="39.897644"
     gradientTransform="matrix(-0.450276 0.00474385 -0.00981241 -0.931366 211.248947 100.930786)"
     r="55.503914"
     xlink:href="#a" />
  <radialGradient
     id="c"
     cx="276.195251"
     cy="83.227715"
     gradientTransform="matrix(0.375159 1.903576 -1.171329 0.230847 18.928574 -466.481842)"
     r="20.230471"
     xlink:href="#a" />
  <radialGradient
     id="d"
     cx="368.810974"
     cy="85.077126"
     gradientTransform="matrix(-0.983477 -0.181034 0.285645 -1.551784 442.690735 286.789581)"
     r="18.6875"
     xlink:href="#a" />
  <linearGradient
     id="e"
     gradientUnits="userSpaceOnUse"
     x1="64.00003"
     x2="65.285186"
     y1="116.999985"
     y2="53.876946">
    <stop
       offset="0"
       stop-color="#1c71d8"
       id="stop10" />
    <stop
       offset="1"
       stop-color="#1c71d8"
       stop-opacity="0"
       id="stop12" />
  </linearGradient>
  <clipPath
     id="f">
    <rect
       height="128"
       width="128"
       id="rect15" />
  </clipPath>
  <clipPath
     id="g">
    <rect
       height="128"
       width="128"
       id="rect18" />
  </clipPath>
  <filter
     id="h"
     height="1"
     width="1"
     x="0"
     y="0">
    <feColorMatrix
       in="SourceGraphic"
       type="matrix"
       values="0 0 0 0 1 0 0 0 0 1 0 0 0 0 1 0 0 0 1 0"
       id="feColorMatrix21" />
  </filter>
  <mask
     id="i">
    <g
       clip-path="url(#g)"
       filter="url(#h)"
       id="g34">
      <g
         clip-path="url(#f)"
         id="g32">
        <path
           d="m 65.285156 53.875 c -11.585937 0 -21.671875 6.183594 -27.160156 15.4375 c -1.757812 -0.402344 -3.59375 -0.617188 -5.476562 -0.617188 c -13.382813 0 -24.152344 10.773438 -24.152344 24.152344 s 10.769531 24.152344 24.152344 24.152344 h 66.289062 c 11.394531 0 20.566406 -9.175781 20.566406 -20.570312 c 0 -11.394532 -9.171875 -20.566407 -20.566406 -20.566407 c -1.183594 0 -2.339844 0.101563 -3.46875 0.289063 c -3.945312 -12.925782 -15.933594 -22.277344 -30.183594 -22.277344 z m 0 0"
           fill="url(#b)"
           id="path24" />
        <path
           d="m 32.652344 68.695312 c -13.382813 0 -24.152344 10.773438 -24.152344 24.152344 s 10.769531 24.152344 24.152344 24.152344 h 16.308594 l -1.199219 -5.285156 l -2.96875 -13.066406 l -1.300781 -5.710938 l -5.367188 -23.625 c -1.757812 -0.402344 -3.589844 -0.617188 -5.472656 -0.617188 z m 0 0"
           fill="url(#c)"
           id="path26" />
        <path
           d="m 98.9375 75.863281 c -1.183594 0 -2.339844 0.101563 -3.46875 0.289063 l -5.480469 16.785156 l -5.824219 17.828125 l -2.035156 6.234375 h 16.808594 c 11.394531 0 20.566406 -9.175781 20.566406 -20.570312 c 0 -11.394532 -9.171875 -20.566407 -20.566406 -20.566407 z m 0 0"
           fill="url(#d)"
           id="path28" />
        <path
           d="m 65.285156 53.875 c -11.585937 0 -21.671875 6.179688 -27.160156 15.433594 c -1.757812 -0.402344 -3.59375 -0.617188 -5.476562 -0.617188 c -13.382813 0 -24.152344 10.773438 -24.152344 24.152344 s 10.769531 24.152344 24.152344 24.152344 h 66.289062 c 11.394531 0 20.566406 -9.171875 20.566406 -20.566406 c 0 -11.394532 -9.171875 -20.570313 -20.566406 -20.570313 c -1.183594 0 -2.339844 0.101563 -3.46875 0.289063 c -3.945312 -12.925782 -15.933594 -22.273438 -30.183594 -22.273438 z m 0 0"
           fill="url(#e)"
           id="path30" />
      </g>
    </g>
  </mask>
  <mask
     id="j">
    <g
       filter="url(#h)"
       id="g39">
      <rect
         fill-opacity="0.8"
         height="128"
         width="128"
         id="rect37" />
    </g>
  </mask>
  <linearGradient
     id="k"
     gradientTransform="matrix(0 0.37 -0.98462 0 295.38501 -30.360001)"
     gradientUnits="userSpaceOnUse"
     x1="300"
     x2="428"
     y1="235"
     y2="235">
    <stop
       offset="0"
       stop-color="#f9f06b"
       id="stop42" />
    <stop
       offset="1"
       stop-color="#f5c211"
       id="stop44" />
  </linearGradient>
  <clipPath
     id="l">
    <rect
       height="128"
       width="128"
       id="rect47" />
  </clipPath>
  <clipPath
     id="m">
    <rect
       height="128"
       width="128"
       id="rect50" />
  </clipPath>
  <path
     d="m 65.285156 53.875 c -11.585937 0 -21.671875 6.183594 -27.160156 15.4375 c -1.757812 -0.402344 -3.59375 -0.617188 -5.476562 -0.617188 c -13.382813 0 -24.152344 10.773438 -24.152344 24.152344 s 10.769531 24.152344 24.152344 24.152344 h 66.289062 c 11.394531 0 20.566406 -9.175781 20.566406 -20.570312 c 0 -11.394532 -9.171875 -20.566407 -20.566406 -20.566407 c -1.183594 0 -2.339844 0.101563 -3.46875 0.289063 c -3.945312 -12.925782 -15.933594 -22.277344 -30.183594 -22.277344 z m 0 0"
     fill="url(#b)"
     id="path53" />
  <path
     d="m 32.652344 68.695312 c -13.382813 0 -24.152344 10.773438 -24.152344 24.152344 s 10.769531 24.152344 24.152344 24.152344 h 16.308594 l -1.199219 -5.285156 l -2.96875 -13.066406 l -1.300781 -5.710938 l -5.367188 -23.625 c -1.757812 -0.402344 -3.589844 -0.617188 -5.472656 -0.617188 z m 0 0"
     fill="url(#c)"
     id="path55" />
  <path
     d="m 98.9375 75.863281 c -1.183594 0 -2.339844 0.101563 -3.46875 0.289063 l -5.480469 16.785156 l -5.824219 17.828125 l -2.035156 6.234375 h 16.808594 c 11.394531 0 20.566406 -9.175781 20.566406 -20.570312 c 0 -11.394532 -9.171875 -20.566407 -20.566406 -20.566407 z m 0 0"
     fill="url(#d)"
     id="path57" />
  <path
     d="m 65.285156 53.875 c -11.585937 0 -21.671875 6.179688 -27.160156 15.433594 c -1.757812 -0.402344 -3.59375 -0.617188 -5.476562 -0.617188 c -13.382813 0 -24.152344 10.773438 -24.152344 24.152344 s 10.769531 24.152344 24.152344 24.152344 h 66.289062 c 11.394531 0 20.566406 -9.171875 20.566406 -20.566406 c 0 -11.394532 -9.171875 -20.570313 -20.566406 -20.570313 c -1.183594 0 -2.339844 0.101563 -3.46875 0.289063 c -3.945312 -12.925782 -15.933594 -22.273438 -30.183594 -22.273438 z m 0 0"
     fill="url(#e)"
     id="path59" />
  <g
     clip-path="url(#clipPath1381)"
     mask="url(#i)"
     id="g67">
    <g
       clip-path="url(#l)"
       mask="url(#j)"
       id="g65">
      <path
         d="m 128 80.640625 v 47.359375 h -128 v -47.359375 z m 0 0"
         fill="url(#k)"
         id="path61" />
      <path
         d="m 13.308594 80.640625 l 47.355468 47.359375 h 21.214844 l -47.359375 -47.359375 z m 42.421875 0 l 47.363281 47.359375 h 21.214844 l -47.363282 -47.359375 z m 42.429687 0 l 29.839844 29.839844 v -21.210938 l -8.628906 -8.628906 z m -98.160156 7.90625 v 21.214844 l 18.238281 18.238281 h 21.214844 z m 0 0"
         id="path63" />
    </g>
  </g>
</svg>
