<?xml version="1.0" encoding="UTF-8"?>
<svg height="128px" viewBox="0 0 128 128" width="128px" xmlns="http://www.w3.org/2000/svg" xmlns:xlink="http://www.w3.org/1999/xlink">
    <linearGradient id="a" gradientUnits="userSpaceOnUse">
        <stop offset="0" stop-color="#62a0ea"/>
        <stop offset="1" stop-color="#1c71d8"/>
    </linearGradient>
    <radialGradient id="b" cx="323.377228" cy="39.897644" gradientTransform="matrix(-0.450276 0.00474385 -0.00981241 -0.931366 211.248947 100.930786)" r="55.503914" xlink:href="#a"/>
    <radialGradient id="c" cx="276.195251" cy="83.227715" gradientTransform="matrix(0.375159 1.903576 -1.171329 0.230847 18.928574 -466.481842)" r="20.230471" xlink:href="#a"/>
    <radialGradient id="d" cx="368.810974" cy="85.077126" gradientTransform="matrix(-0.983477 -0.181034 0.285645 -1.551784 442.690735 286.789581)" r="18.6875" xlink:href="#a"/>
    <linearGradient id="e" gradientUnits="userSpaceOnUse" x1="64.00003" x2="65.285186" y1="116.999985" y2="53.876946">
        <stop offset="0" stop-color="#1c71d8"/>
        <stop offset="1" stop-color="#1c71d8" stop-opacity="0"/>
    </linearGradient>
    <path d="m 65.285156 53.875 c -11.585937 0 -21.671875 6.183594 -27.160156 15.4375 c -1.757812 -0.402344 -3.59375 -0.617188 -5.476562 -0.617188 c -13.382813 0 -24.152344 10.773438 -24.152344 24.152344 s 10.769531 24.152344 24.152344 24.152344 h 66.289062 c 11.394531 0 20.566406 -9.175781 20.566406 -20.570312 c 0 -11.394532 -9.171875 -20.566407 -20.566406 -20.566407 c -1.183594 0 -2.339844 0.101563 -3.46875 0.289063 c -3.945312 -12.925782 -15.933594 -22.277344 -30.183594 -22.277344 z m 0 0" fill="url(#b)"/>
    <path d="m 32.652344 68.695312 c -13.382813 0 -24.152344 10.773438 -24.152344 24.152344 s 10.769531 24.152344 24.152344 24.152344 h 16.308594 l -1.199219 -5.285156 l -2.96875 -13.066406 l -1.300781 -5.710938 l -5.367188 -23.625 c -1.757812 -0.402344 -3.589844 -0.617188 -5.472656 -0.617188 z m 0 0" fill="url(#c)"/>
    <path d="m 98.9375 75.863281 c -1.183594 0 -2.339844 0.101563 -3.46875 0.289063 l -5.480469 16.785156 l -5.824219 17.828125 l -2.035156 6.234375 h 16.808594 c 11.394531 0 20.566406 -9.175781 20.566406 -20.570312 c 0 -11.394532 -9.171875 -20.566407 -20.566406 -20.566407 z m 0 0" fill="url(#d)"/>
    <path d="m 65.285156 53.875 c -11.585937 0 -21.671875 6.179688 -27.160156 15.433594 c -1.757812 -0.402344 -3.59375 -0.617188 -5.476562 -0.617188 c -13.382813 0 -24.152344 10.773438 -24.152344 24.152344 s 10.769531 24.152344 24.152344 24.152344 h 66.289062 c 11.394531 0 20.566406 -9.171875 20.566406 -20.566406 c 0 -11.394532 -9.171875 -20.570313 -20.566406 -20.570313 c -1.183594 0 -2.339844 0.101563 -3.46875 0.289063 c -3.945312 -12.925782 -15.933594 -22.273438 -30.183594 -22.273438 z m 0 0" fill="url(#e)"/>
</svg>
